<?xml version='1.0' encoding='utf-8'?>
<svg xmlns="http://www.w3.org/2000/svg" version="1.0" width="2360.000000pt" height="1640.000000pt" viewBox="0 0 2360.000000 1640.000000" preserveAspectRatio="xMidYMid meet">

<g transform="translate(0.000000,1640.000000) scale(0.100000,-0.100000)" fill="#000000" stroke="none">
<path d="M14586 14954 c-91 -29 -155 -83 -211 -179 -22 -36 -32 -45 -54 -45 -109 0 -227 -103 -310 -270 -65 -132 -89 -237 -73 -322 l11 -59 -63 -63 c-95 -95 -169 -232 -202 -373 -18 -77 -13 -137 17 -200 l20 -41 -45 -84 c-55 -102 -80 -187 -71 -236 10 -55 50 -126 89 -158 l35 -29 -20 -70 c-12 -40 -22 -103 -22 -146 -2 -68 2 -82 33 -143 41 -83 100 -132 167 -142 110 -16 273 22 386 92 59 37 60 37 89 19 52 -30 157 -1 282 79 31 20 58 36 59 36 2 0 -2 -33 -9 -73 -77 -448 -81 -1024 -9 -1369 39 -188 122 -394 216 -538 86 -130 242 -263 384 -326 146 -64 360 -92 564 -74 643 57 1157 434 1487 1089 152 304 269 643 424 1238 33 128 74 272 91 320 17 49 35 103 41 121 10 28 16 32 47 32 20 0 203 7 406 15 556 22 1024 35 1270 35 257 0 328 10 532 74 77 25 157 48 179 52 77 14 73 48 -13 112 -133 97 -275 162 -408 187 -176 33 -528 29 -1515 -20 -272 -13 -569 -27 -660 -30 -91 -3 -191 -8 -223 -11 l-57 -5 26 58 c83 184 122 361 110 503 -13 160 -59 263 -161 366 -59 60 -88 80 -185 127 -162 78 -292 106 -491 107 -424 1 -949 -139 -1293 -344 -168 -100 -350 -267 -424 -388 -73 -123 -92 -254 -52 -360 37 -97 113 -210 176 -261 32 -26 60 -51 62 -55 1 -4 -69 -42 -155 -85 -92 -45 -198 -107 -253 -147 -154 -112 -263 -190 -297 -211 l-33 -21 0 50 c0 46 -2 51 -30 62 -19 8 -47 10 -77 5 -57 -8 -99 -48 -116 -112 -9 -35 -22 -52 -58 -79 -80 -58 -155 -87 -241 -92 l-77 -4 -20 33 c-25 41 -26 90 -5 171 28 110 40 131 91 158 76 40 136 108 172 194 30 72 39 129 23 152 -11 17 -48 34 -74 34 -87 0 -175 -71 -237 -190 -19 -36 -35 -66 -36 -68 -6 -8 -34 13 -43 33 -15 33 -2 73 55 167 30 50 56 81 74 88 73 31 169 175 169 254 0 46 -26 60 -89 51 -37 -6 -55 -16 -93 -55 -53 -52 -55 -50 -33 33 27 103 97 211 181 279 40 33 48 36 72 27 31 -12 87 -4 119 16 26 17 66 120 59 150 -3 13 -22 29 -46 40 -35 16 -49 17 -91 9 -48 -10 -49 -10 -51 15 -5 91 20 172 83 265 43 65 102 126 122 126 3 0 8 -13 12 -29 9 -43 61 -111 85 -111 25 0 65 83 75 155 8 62 27 101 72 154 93 109 206 111 308 6 28 -29 61 -72 72 -96 45 -97 64 -245 43 -349 -9 -48 3 -84 43 -127 31 -35 46 -28 74 34 22 48 27 77 31 163 15 375 -249 688 -512 604z m774 -1816 c199 -72 539 -102 1320 -118 234 -5 446 -12 471 -15 26 -4 123 0 215 9 93 9 195 16 226 16 l56 0 -20 -62 c-10 -35 -51 -189 -89 -343 -205 -817 -343 -1168 -594 -1504 -219 -293 -490 -498 -807 -609 -240 -85 -515 -100 -728 -41 -284 78 -477 317 -570 701 -81 336 -91 784 -29 1278 35 275 32 267 107 325 78 61 188 178 285 302 51 65 76 91 87 87 8 -4 40 -15 70 -26z" />
<path d="M16612 12844 c-12 -8 -29 -28 -36 -43 -28 -53 -144 -477 -156 -569 -23 -165 2 -450 52 -596 17 -51 35 -57 42 -14 2 18 23 146 45 283 23 138 50 329 61 425 11 96 34 229 50 296 34 136 39 218 14 228 -26 10 -48 7 -72 -10z" />
<path d="M16017 12788 c-60 -83 -170 -436 -201 -649 -32 -213 -18 -356 45 -485 28 -57 83 -123 93 -113 3 2 7 150 9 329 6 412 32 605 108 798 16 40 29 90 29 112 0 38 -2 40 -29 40 -22 0 -36 -9 -54 -32z" />
<path d="M15137 11558 c-26 -21 -37 -64 -37 -151 0 -174 63 -321 185 -435 41 -38 105 -85 144 -106 80 -42 202 -76 272 -76 104 0 254 42 416 116 56 25 73 38 73 54 0 20 -3 20 -152 14 -170 -7 -274 3 -433 41 -129 32 -212 73 -281 140 -80 78 -106 143 -113 276 -7 129 -27 162 -74 127z" />
<path d="M10610 13114 c-614 -41 -954 -94 -1407 -220 -757 -210 -1537 -624 -2113 -1121 -421 -364 -863 -910 -1070 -1322 -179 -358 -284 -817 -220 -965 18 -44 43 -66 57 -52 3 3 12 48 20 98 32 216 128 537 217 724 155 325 490 761 867 1129 293 286 588 509 959 725 759 441 1480 668 2395 752 192 18 1045 18 1260 0 410 -34 1132 -146 1360 -212 86 -25 95 -25 95 -2 0 23 -165 123 -355 217 -276 135 -528 194 -1020 236 -125 10 -931 20 -1045 13z" />
<path d="M13475 11076 c-369 -70 -706 -264 -1040 -601 -255 -256 -507 -604 -635 -878 -90 -192 -103 -377 -39 -583 34 -111 35 -110 152 123 58 114 121 249 142 298 123 299 395 678 680 946 293 276 593 432 902 469 108 13 253 1 299 -26 37 -21 61 -14 74 21 30 80 -10 153 -115 205 -68 34 -71 35 -210 37 -84 1 -168 -3 -210 -11z" />
<path d="M18424 10849 c-194 -14 -471 -80 -654 -156 -174 -72 -360 -205 -360 -258 0 -24 44 -85 61 -85 5 0 37 23 71 50 34 28 65 50 68 50 10 0 32 -134 32 -190 -1 -59 -19 -96 -67 -139 -35 -30 -184 -111 -205 -111 -16 0 -12 287 5 335 15 43 9 60 -19 49 -51 -19 -59 -86 -86 -744 -12 -278 -25 -514 -30 -525 -5 -14 -24 -25 -61 -34 -113 -28 -620 -181 -749 -226 -883 -307 -1776 -793 -2430 -1323 -574 -466 -1059 -1014 -1349 -1523 -42 -73 -72 -117 -76 -108 -2 8 -43 149 -90 313 -299 1047 -611 1702 -1148 2409 -309 407 -698 831 -1031 1124 -100 88 -135 113 -157 113 -42 0 -38 -30 9 -71 61 -53 437 -462 596 -647 823 -962 1226 -1722 1547 -2922 108 -405 129 -471 166 -542 25 -48 49 -78 75 -95 67 -45 94 -22 213 187 366 639 1035 1323 1785 1825 312 209 579 359 1035 585 187 92 561 278 830 412 459 229 824 402 831 396 5 -6 -59 -1103 -72 -1216 l-6 -53 -130 -65 c-1061 -532 -2251 -1747 -2769 -2829 -333 -696 -410 -1257 -238 -1729 65 -178 194 -388 313 -510 232 -236 542 -385 916 -440 784 -115 1841 207 2920 889 496 314 914 646 1305 1039 458 460 761 875 1015 1391 238 484 342 868 342 1265 1 182 -14 294 -57 425 -135 413 -444 632 -1086 769 -90 19 -185 38 -211 41 -44 7 -48 6 -48 -14 0 -24 -4 -21 205 -136 167 -91 348 -206 450 -284 139 -107 318 -311 365 -416 55 -123 86 -316 75 -475 -40 -578 -364 -1260 -906 -1910 -840 -1008 -2253 -1942 -3375 -2230 -380 -98 -771 -115 -1099 -49 -419 85 -711 297 -880 638 -174 351 -170 774 11 1303 336 980 1328 2165 2405 2875 148 97 459 277 466 269 11 -10 -103 -1407 -147 -1804 l-29 -262 -35 -34 c-43 -40 -62 -82 -71 -156 -7 -59 7 -166 30 -233 8 -23 20 -107 26 -186 16 -218 29 -234 90 -112 23 46 39 69 44 61 15 -25 90 -50 150 -50 81 0 149 33 232 112 279 268 388 812 185 926 -74 41 -219 22 -325 -45 -22 -14 -63 -46 -90 -72 l-50 -46 7 70 c17 187 106 1740 106 1851 l0 42 85 35 c285 120 548 177 811 177 234 0 424 -39 499 -103 22 -18 47 -36 56 -39 41 -15 54 58 17 95 -91 89 -193 144 -318 172 -102 22 -363 31 -487 16 -183 -23 -419 -84 -581 -150 l-72 -29 5 77 c9 125 34 699 41 952 l7 235 101 45 c81 35 102 49 104 67 4 27 8 27 -106 -1 l-93 -23 7 320 c3 177 7 322 9 323 1 2 17 -8 35 -22 19 -14 47 -25 62 -25 35 0 109 36 171 84 26 20 49 36 52 36 2 0 24 -14 48 -31 l44 -31 113 47 c62 25 121 52 132 58 17 10 22 9 26 -3 8 -24 103 -110 122 -110 51 0 206 72 281 131 l36 28 44 -40 c24 -23 54 -45 67 -50 58 -23 244 1 322 41 69 36 124 115 165 239 13 40 16 75 13 140 -3 77 -9 97 -43 167 -22 43 -41 83 -43 87 -9 18 38 -14 92 -63 30 -28 73 -77 94 -109 50 -75 106 -244 128 -386 23 -145 23 -443 0 -679 -20 -207 -16 -241 42 -346 59 -106 118 -145 154 -102 8 9 27 46 43 82 28 64 29 67 36 330 14 552 -27 845 -155 1105 -92 185 -195 291 -376 384 -189 97 -376 130 -636 110z m-41 -278 c60 -143 47 -233 -43 -315 -35 -31 -153 -96 -175 -96 -3 0 -5 33 -5 73 0 39 -11 144 -24 232 -13 88 -23 161 -22 162 2 3 187 31 211 32 16 1 28 -17 58 -88z m360 62 c38 -8 70 -20 72 -26 1 -7 17 -55 33 -107 50 -159 51 -251 2 -295 -19 -17 -27 -17 -108 -5 -48 7 -90 14 -94 16 -3 3 -2 19 3 37 5 17 10 75 10 127 0 105 -12 152 -62 233 l-31 50 54 -7 c29 -4 84 -14 121 -23z m-759 -120 c-2 -49 -6 -136 -8 -196 -5 -142 -18 -162 -115 -181 l-34 -6 7 48 c9 69 -10 155 -55 251 -30 65 -36 87 -27 93 12 8 216 77 229 78 4 0 5 -39 3 -87z m-413 -4880 c7 -17 9 -67 6 -123 -8 -170 -91 -363 -214 -500 -93 -104 -178 -134 -249 -91 l-32 19 13 54 c7 30 18 65 24 77 7 12 10 30 6 39 -3 9 -3 63 1 120 6 97 9 107 42 155 113 167 251 276 350 277 37 0 44 -3 53 -27z" />
<path d="M4249 10791 c-20 -11 -49 -35 -64 -53 -26 -31 -27 -35 -21 -108 6 -61 12 -80 32 -101 30 -31 27 -50 -19 -149 -38 -82 -42 -158 -11 -211 l21 -35 -138 -38 c-79 -22 -146 -35 -158 -31 -11 3 -31 19 -44 34 -22 26 -25 41 -30 150 -4 90 -10 128 -22 147 -9 15 -21 22 -25 18 -5 -5 -12 -77 -16 -161 -6 -141 -5 -154 14 -191 l20 -39 -120 -33 c-75 -21 -123 -29 -129 -23 -5 5 -13 23 -18 40 -10 34 -8 38 65 160 42 69 64 128 64 173 0 19 9 30 36 45 107 57 127 212 34 260 -58 30 -114 30 -174 1 -67 -33 -101 -76 -99 -125 5 -103 9 -121 36 -149 15 -15 27 -34 27 -41 0 -7 -18 -58 -40 -112 -47 -117 -50 -165 -16 -233 16 -32 20 -49 12 -51 -67 -24 -172 -45 -195 -40 -16 3 -46 21 -67 39 l-39 33 -5 134 c-6 130 -21 193 -45 191 -13 -2 -37 -252 -31 -316 3 -29 16 -65 31 -88 15 -22 25 -41 23 -43 -2 -1 -55 -17 -118 -35 -63 -17 -123 -34 -132 -36 -12 -4 -24 5 -38 28 -31 52 -26 88 25 168 66 101 95 168 95 220 0 42 3 47 36 65 57 31 102 87 109 139 9 57 2 86 -31 125 -41 50 -139 66 -212 35 -43 -18 -88 -58 -108 -96 -16 -31 -19 -94 -5 -103 5 -3 7 -21 4 -40 -5 -30 -1 -39 26 -64 18 -17 31 -39 31 -53 0 -12 -16 -61 -36 -108 -53 -126 -59 -153 -45 -213 6 -28 23 -66 37 -84 14 -18 23 -37 20 -41 -3 -5 -35 -17 -71 -27 -65 -17 -66 -17 -88 3 -12 11 -39 24 -60 27 -47 9 -98 43 -114 75 -6 14 -16 76 -23 139 -11 112 -29 171 -53 171 -14 0 -16 -312 -2 -345 17 -42 49 -78 91 -104 l43 -28 -144 -45 c-157 -49 -161 -49 -209 9 -48 57 -46 82 19 208 48 92 59 125 64 178 6 63 8 67 48 96 80 58 107 162 60 232 -30 45 -68 62 -140 61 -47 0 -68 -6 -105 -29 -69 -43 -95 -86 -88 -148 3 -27 7 -65 9 -84 2 -24 13 -42 40 -65 35 -30 36 -32 27 -72 -5 -23 -23 -82 -40 -132 -16 -49 -30 -99 -30 -109 0 -47 35 -119 81 -165 l48 -48 -192 -60 c-464 -147 -477 -153 -477 -194 0 -28 32 -59 52 -51 12 5 16 -5 21 -47 4 -29 47 -172 96 -318 50 -146 119 -365 155 -487 67 -227 101 -312 175 -442 23 -41 40 -75 39 -76 -2 -2 -32 -12 -68 -22 -71 -21 -89 -45 -48 -64 40 -17 286 48 1068 284 1369 414 1976 563 2582 637 92 11 178 24 192 30 19 7 29 22 42 66 21 72 13 105 -36 161 -98 111 -201 527 -250 1002 -11 112 -26 215 -33 229 -20 41 -61 65 -122 70 l-55 4 -16 -37 c-9 -21 -16 -57 -15 -79 0 -36 42 -344 57 -417 5 -26 5 -26 -78 -32 -98 -7 -305 -57 -663 -160 -419 -121 -901 -283 -1840 -620 -344 -123 -531 -186 -635 -212 -36 -9 -82 -21 -102 -26 -42 -11 -48 -27 -18 -54 47 -42 234 6 1030 270 1045 345 1326 430 1880 566 186 46 351 92 387 109 l61 28 17 -76 c51 -238 117 -451 174 -564 l38 -76 -56 -7 c-103 -12 -384 -66 -581 -111 -673 -153 -1603 -434 -2542 -768 -180 -64 -329 -116 -331 -116 -2 0 -7 56 -11 124 -8 162 -18 214 -73 381 -78 240 -254 686 -329 837 l-23 48 42 11 c159 42 376 103 652 184 393 116 609 175 1110 305 731 190 1410 371 1490 397 156 51 438 162 454 179 15 15 8 16 -114 11 -176 -8 -330 -31 -514 -78 -85 -21 -162 -39 -171 -39 -9 0 -27 11 -40 25 -22 23 -25 38 -30 146 -5 90 -10 124 -22 136 -9 8 -20 13 -26 9 -5 -3 -13 -66 -17 -139 -6 -111 -4 -140 9 -172 9 -21 15 -39 14 -40 -11 -10 -215 -61 -221 -55 -4 4 -10 22 -13 41 -4 28 2 44 31 89 53 79 85 150 85 188 0 21 7 38 22 50 90 71 121 135 96 200 -19 51 -57 75 -125 79 -43 2 -67 -2 -94 -16z" />
<path d="M16475 10009 c-102 -11 -242 -46 -370 -94 -122 -45 -536 -249 -1025 -504 -402 -210 -582 -295 -649 -306 -82 -14 -146 -40 -149 -62 -4 -27 23 -53 56 -53 49 0 185 38 302 83 137 53 306 128 605 267 388 181 566 260 765 342 163 66 455 199 639 291 71 35 65 47 -21 46 -40 -1 -109 -5 -153 -10z" />
<path d="M17045 9924 c-131 -36 -401 -128 -545 -186 -283 -114 -1408 -707 -1648 -868 -156 -104 -196 -154 -156 -194 22 -23 35 -20 86 19 24 19 145 83 269 141 123 58 361 171 529 251 168 81 420 200 560 265 289 135 409 199 700 376 282 171 310 190 310 207 0 18 4 19 -105 -11z" />
<path d="M4609 9895 c-35 -19 -42 -40 -25 -73 35 -67 89 -100 113 -69 26 32 33 134 11 148 -20 13 -70 10 -99 -6z" />
<path d="M2133 9220 c-18 -11 -33 -25 -33 -32 0 -20 43 -76 68 -87 60 -28 111 70 62 119 -25 25 -56 25 -97 0z" />
<path d="M8150 9108 c-157 -14 -429 -56 -648 -99 -114 -22 -256 -45 -317 -49 -156 -12 -335 -64 -524 -152 -70 -32 -184 -63 -621 -169 -1606 -389 -2592 -673 -3463 -998 -517 -193 -926 -389 -1135 -543 -30 -22 -56 -38 -59 -35 -2 3 -13 81 -24 174 -37 331 -157 1075 -183 1137 -16 38 -67 83 -103 92 -63 16 -113 -40 -113 -126 0 -25 16 -137 35 -250 91 -527 141 -892 154 -1116 8 -137 10 -145 45 -209 71 -131 102 -135 206 -29 134 136 257 225 497 358 369 204 1165 510 2008 772 633 197 2187 618 2127 577 -395 -274 -884 -724 -1272 -1175 -879 -1017 -1513 -2282 -1671 -3333 -40 -271 -36 -603 12 -824 44 -199 142 -426 262 -599 127 -184 357 -364 571 -447 454 -176 1032 -147 1726 84 1139 381 2447 1355 3331 2481 610 778 1022 1655 1146 2440 14 91 18 174 18 405 0 261 -2 302 -23 410 -45 237 -143 474 -262 634 -237 319 -659 538 -1142 590 -113 13 -441 12 -578 -1z m130 -189 c402 -36 775 -121 980 -224 250 -125 430 -304 522 -517 193 -447 159 -1073 -94 -1758 -423 -1143 -1403 -2321 -2658 -3197 -297 -207 -557 -361 -890 -527 -786 -391 -1446 -517 -1992 -381 -213 53 -354 131 -499 275 -162 161 -261 355 -320 629 -15 72 -22 147 -26 297 -8 281 18 487 103 834 322 1312 1312 2798 2508 3764 296 239 659 477 781 511 316 88 528 150 574 167 36 14 56 17 59 10 7 -23 47 -75 57 -75 35 1 42 102 10 163 -12 23 -13 30 -3 31 179 18 678 17 888 -2z" />
<path d="M6220 6336 c-60 -17 -115 -41 -149 -65 -18 -13 -32 -17 -42 -10 -24 15 -63 10 -117 -17 -127 -63 -200 -270 -189 -538 6 -157 28 -242 95 -369 111 -212 262 -280 435 -199 172 80 346 344 402 607 18 87 19 274 1 340 -30 114 -87 189 -178 235 -53 26 -71 30 -137 29 -42 0 -96 -6 -121 -13z m-308 -276 c-14 -32 -28 -57 -30 -55 -5 4 45 115 52 115 2 0 -8 -27 -22 -60z m495 40 c52 -31 58 -52 57 -185 0 -102 -5 -132 -27 -200 -50 -150 -162 -307 -267 -375 -42 -27 -56 -31 -85 -26 -46 9 -92 50 -134 121 -34 56 -81 196 -81 240 0 29 101 183 170 258 29 32 81 78 115 102 118 85 190 103 252 65z" />
<path d="M4528 8998 c-32 -11 -35 -24 -12 -56 31 -45 120 -11 95 36 -10 18 -33 33 -49 31 -4 0 -19 -5 -34 -11z" />
<path d="M2720 8596 c-19 -8 -41 -25 -49 -38 -14 -24 -12 -29 18 -77 62 -96 119 -100 145 -10 19 64 20 90 3 112 -16 23 -73 29 -117 13z" />
<path d="M21185 8496 c-19 -13 -19 -15 0 -57 12 -28 67 -93 146 -174 130 -134 205 -236 264 -362 99 -207 128 -338 128 -568 0 -191 -21 -320 -88 -536 -69 -224 -184 -628 -240 -842 -44 -172 -54 -221 -45 -233 7 -7 17 -11 22 -7 6 3 73 101 150 217 207 313 316 544 388 821 55 212 64 284 65 500 0 216 -10 292 -62 450 -76 231 -176 381 -411 618 -164 166 -257 217 -317 173z" />
<path d="M10903 7318 c-11 -13 -26 -33 -32 -45 -12 -24 -94 -254 -178 -498 -126 -370 -317 -1094 -404 -1535 -40 -200 -30 -427 27 -603 9 -27 21 -46 27 -44 18 6 144 390 166 507 11 58 39 202 61 320 78 411 339 1549 394 1720 32 99 40 153 26 179 -15 28 -61 27 -87 -1z" />
<path d="M11363 7219 c-12 -4 -27 -18 -34 -31 -19 -35 -192 -575 -254 -792 -147 -517 -194 -767 -225 -1200 -10 -137 -8 -156 11 -156 12 0 14 5 124 341 110 334 140 446 200 739 67 326 152 710 190 855 46 178 52 231 28 243 -10 5 -27 6 -40 1z" />
<path d="M16850 5097 c0 -20 5 -39 11 -42 7 -5 8 5 3 32 -9 51 -14 54 -14 10z" />
<path d="M11921 4969 c-119 -9 -252 -35 -426 -84 -121 -34 -372 -118 -382 -129 -3 -3 -3 -13 1 -22 5 -14 15 -16 59 -10 253 31 908 41 1075 17 183 -27 355 -90 435 -160 63 -56 80 -94 80 -175 -1 -89 -27 -161 -88 -238 -88 -112 -216 -196 -385 -252 -136 -45 -230 -60 -595 -97 -165 -16 -408 -43 -540 -59 -461 -57 -572 -65 -880 -64 -189 0 -323 5 -383 14 -100 14 -119 9 -108 -28 8 -25 14 -27 154 -62 201 -51 347 -63 692 -57 177 4 397 15 525 26 121 11 348 30 505 41 353 25 485 42 633 79 247 62 452 197 551 360 65 107 98 206 104 312 11 223 -89 369 -333 485 -183 87 -432 124 -694 103z" />
<path d="M2317 4443 c-64 -175 -143 -469 -174 -648 -26 -157 -24 -447 5 -593 48 -240 141 -439 305 -657 81 -107 157 -195 168 -195 31 0 14 39 -59 137 -146 197 -207 306 -263 470 -57 168 -64 226 -63 493 1 287 14 402 108 928 18 100 20 132 11 132 -7 0 -24 -30 -38 -67z" />
</g>
</svg>